<svg xmlns="http://www.w3.org/2000/svg" viewBox="0 0 64 64" width="64" height="64">
  <defs>
    <linearGradient id="iconBg" x1="0%" y1="0%" x2="100%" y2="100%">
      <stop offset="0%" stop-color="#4f46e5"/>
      <stop offset="100%" stop-color="#7c3aed"/>
    </linearGradient>
  </defs>

  <!-- Shield shape -->
  <path d="M10 6 L54 6 Q58 6 58 10 L58 40 Q58 54 32 62 Q6 54 6 40 L6 10 Q6 6 10 6 Z"
        fill="url(#iconBg)"/>

  <!-- Neural network nodes -->
  <circle cx="32" cy="28" r="5.5" fill="none" stroke="white" stroke-width="2" opacity="0.95"/>
  <circle cx="32" cy="28" r="2" fill="white" opacity="0.95"/>

  <circle cx="32" cy="14" r="3.5" fill="none" stroke="white" stroke-width="1.5" opacity="0.8"/>
  <circle cx="32" cy="14" r="1.3" fill="white" opacity="0.8"/>

  <circle cx="32" cy="46" r="3.5" fill="none" stroke="white" stroke-width="1.5" opacity="0.8"/>
  <circle cx="32" cy="46" r="1.3" fill="white" opacity="0.8"/>

  <circle cx="17" cy="36" r="3.5" fill="none" stroke="white" stroke-width="1.5" opacity="0.8"/>
  <circle cx="17" cy="36" r="1.3" fill="white" opacity="0.8"/>

  <circle cx="47" cy="36" r="3.5" fill="none" stroke="white" stroke-width="1.5" opacity="0.8"/>
  <circle cx="47" cy="36" r="1.3" fill="white" opacity="0.8"/>

  <circle cx="17" cy="18" r="2.8" fill="none" stroke="white" stroke-width="1.2" opacity="0.6"/>
  <circle cx="17" cy="18" r="1" fill="white" opacity="0.6"/>

  <circle cx="47" cy="18" r="2.8" fill="none" stroke="white" stroke-width="1.2" opacity="0.6"/>
  <circle cx="47" cy="18" r="1" fill="white" opacity="0.6"/>

  <!-- Connection lines -->
  <line x1="32" y1="22.5" x2="32" y2="17.5" stroke="white" stroke-width="1.3" opacity="0.5"/>
  <line x1="32" y1="33.5" x2="32" y2="42.5" stroke="white" stroke-width="1.3" opacity="0.5"/>
  <line x1="27" y1="31" x2="20.5" y2="34.5" stroke="white" stroke-width="1.3" opacity="0.5"/>
  <line x1="37" y1="31" x2="43.5" y2="34.5" stroke="white" stroke-width="1.3" opacity="0.5"/>
  <line x1="28" y1="24.5" x2="20" y2="20" stroke="white" stroke-width="1" opacity="0.35"/>
  <line x1="36" y1="24.5" x2="44" y2="20" stroke="white" stroke-width="1" opacity="0.35"/>
  <line x1="17" y1="21" x2="17" y2="32.5" stroke="white" stroke-width="1" opacity="0.3"/>
  <line x1="47" y1="21" x2="47" y2="32.5" stroke="white" stroke-width="1" opacity="0.3"/>

  <!-- Sparkle accent -->
  <g transform="translate(51, 8)" opacity="0.9">
    <line x1="0" y1="-5" x2="0" y2="5" stroke="#ec4899" stroke-width="2" stroke-linecap="round"/>
    <line x1="-5" y1="0" x2="5" y2="0" stroke="#ec4899" stroke-width="2" stroke-linecap="round"/>
    <line x1="-3" y1="-3" x2="3" y2="3" stroke="#ec4899" stroke-width="1.3" stroke-linecap="round"/>
    <line x1="3" y1="-3" x2="-3" y2="3" stroke="#ec4899" stroke-width="1.3" stroke-linecap="round"/>
  </g>
</svg>